<?xml version="1.0" encoding="UTF-8" standalone="no"?>
<!-- Created with Inkscape (http://www.inkscape.org/) -->

<svg
   xmlns:dc="http://purl.org/dc/elements/1.1/"
   xmlns:cc="http://creativecommons.org/ns#"
   xmlns:rdf="http://www.w3.org/1999/02/22-rdf-syntax-ns#"
   xmlns:svg="http://www.w3.org/2000/svg"
   xmlns="http://www.w3.org/2000/svg"
   version="1.1"
   width="1000.0001"
   height="260.80273"
   id="svg2"
   xml:space="preserve"><metadata
     id="metadata8"><rdf:RDF><cc:Work
         rdf:about=""><dc:format>image/svg+xml</dc:format><dc:type
           rdf:resource="http://purl.org/dc/dcmitype/StillImage" /><dc:title></dc:title></cc:Work></rdf:RDF></metadata><defs
     id="defs6" /><g
     transform="matrix(1.25,0,0,-1.25,0.00500024,260.80023)"
     id="g10"><g
       transform="scale(1.0000488,1.0000488)"
       id="g12"><path
         d="m 254.918,186.248 0,-183.25 -47.625,0 0,19.625 c -6.668,-8.336 -12.75,-13.961 -18.25,-16.875 -7.336,-3.832 -15.5,-5.75 -24.5,-5.75 -18.086,0 -31.898,6.875 -41.438,20.625 -9.543,13.75 -14.312,30.457 -14.312,50.125 0,22 5.269,38.832 15.812,50.5 10.54,11.664 23.938,17.5 40.188,17.5 7.914,0 15.102,-1.336 21.562,-4 6.457,-2.668 12.188,-6.668 17.188,-12 l 0,63.5 51.375,0 z m -51,-116.5 c 0,10.414 -2.211,18.187 -6.625,23.312 -4.418,5.125 -10,7.688 -16.75,7.688 -5.918,0 -10.875,-2.461 -14.875,-7.375 -4,-4.918 -6,-13.168 -6,-24.75 0,-10.836 2.062,-18.774 6.187,-23.813 4.125,-5.043 9.227,-7.562 15.313,-7.562 6.5,0 11.914,2.539 16.25,7.625 4.332,5.082 6.5,13.375 6.5,24.875 z m 128.527,23 -48.625,5.125 c 1.832,8.5 4.477,15.187 7.938,20.062 3.457,4.875 8.437,9.102 14.937,12.688 4.664,2.582 11.082,4.582 19.25,6 8.164,1.414 17,2.125 26.5,2.125 15.25,0 27.5,-0.856 36.75,-2.563 9.25,-1.711 16.957,-5.273 23.125,-10.687 4.332,-3.75 7.75,-9.063 10.25,-15.938 2.5,-6.875 3.75,-13.437 3.75,-19.687 l 0,-58.625 c 0,-6.25 0.395,-11.149 1.188,-14.688 0.789,-3.543 2.519,-8.062 5.187,-13.562 l -47.75,0 c -1.918,3.414 -3.168,6.019 -3.75,7.812 -0.586,1.789 -1.168,4.602 -1.75,8.438 -6.668,-6.418 -13.293,-11 -19.875,-13.75 -9,-3.664 -19.461,-5.5 -31.375,-5.5 -15.836,0 -27.855,3.664 -36.062,11 -8.211,7.332 -12.313,16.375 -12.313,27.125 0,10.082 2.957,18.375 8.875,24.875 5.914,6.5 16.832,11.332 32.75,14.5 19.082,3.832 31.457,6.519 37.125,8.062 5.664,1.539 11.664,3.563 18,6.063 0,6.25 -1.293,10.625 -3.875,13.125 -2.586,2.5 -7.125,3.75 -13.625,3.75 -8.336,0 -14.586,-1.336 -18.75,-4 -3.25,-2.086 -5.875,-6 -7.875,-11.75 z m 44.125,-26.75 c -7,-2.5 -14.293,-4.711 -21.875,-6.625 -10.336,-2.75 -16.875,-5.461 -19.625,-8.125 -2.836,-2.75 -4.25,-5.875 -4.25,-9.375 0,-4 1.395,-7.274 4.188,-9.813 2.789,-2.543 6.894,-3.812 12.312,-3.812 5.664,0 10.938,1.375 15.813,4.125 4.875,2.75 8.332,6.101 10.375,10.062 2.039,3.957 3.062,9.102 3.062,15.438 l 0,8.125 z m 224.524,-63 -152.75,0 c 1.75,15.082 7.062,29.269 15.937,42.562 8.875,13.289 25.52,28.977 49.938,47.063 14.914,11.082 24.457,19.5 28.625,25.25 4.164,5.75 6.25,11.207 6.25,16.375 0,5.582 -2.063,10.351 -6.188,14.312 -4.125,3.957 -9.312,5.938 -15.562,5.938 -6.5,0 -11.813,-2.043 -15.938,-6.125 -4.125,-4.086 -6.898,-11.293 -8.312,-21.625 l -51,4.125 c 2,14.332 5.664,25.519 11,33.562 5.332,8.039 12.851,14.207 22.562,18.5 9.707,4.289 23.145,6.438 40.313,6.438 17.914,0 31.851,-2.043 41.812,-6.125 9.957,-4.086 17.789,-10.356 23.5,-18.813 5.707,-8.461 8.563,-17.937 8.563,-28.437 0,-11.168 -3.274,-21.836 -9.813,-32 C 583.488,93.83 571.594,82.662 554.344,70.498 544.094,63.412 537.238,58.455 533.781,55.623 530.32,52.787 526.258,49.08 521.594,44.498 l 79.5,0 0,-41.5 z m 28.652,183.25 50.875,0 0,-34.625 -50.875,0 0,34.625 z m 0,-50.5 50.875,0 0,-132.75 -50.875,0 0,132.75 z"
         id="path14"
         style="fill:#b3b3b3;fill-opacity:1;fill-rule:nonzero;stroke:none" /><path
         d="m 7.34,162.115 0,30.984 c -0.024,3.008 -0.152,4.828 -0.391,5.453 -0.406,1.02 -1.25,1.696 -2.531,2.032 -0.637,0.113 -1.75,0.179 -3.344,0.203 -0.687,0 -1.047,0.332 -1.078,1 l 0,0.468 c 0,0.614 0.32,0.922 0.969,0.922 0.519,0 1.172,-0.039 1.953,-0.109 2.445,-0.188 4.977,-0.281 7.594,-0.281 2.07,0 4.664,0.093 7.781,0.281 1.019,0.07 1.836,0.109 2.453,0.109 0.688,0 1.031,-0.308 1.031,-0.922 l 0,-0.468 c -0.023,-0.45 -0.125,-0.731 -0.312,-0.844 -0.219,-0.106 -1.016,-0.168 -2.391,-0.188 -2.281,0 -3.781,-0.546 -4.5,-1.64 -0.304,-0.5 -0.492,-1.227 -0.562,-2.172 -0.074,-0.481 -0.11,-1.762 -0.11,-3.844 l 0,-27.875 c 0,-3.543 0.305,-5.945 0.922,-7.203 0.664,-1.312 1.844,-2.184 3.531,-2.609 1.594,-0.43 4.079,-0.641 7.454,-0.641 4.007,0 6.753,0.359 8.234,1.078 0.687,0.301 1.398,1.117 2.141,2.453 0.093,0.145 0.613,1.098 1.562,2.86 0.645,1.187 1.024,1.836 1.141,1.953 0.187,0.164 0.41,0.25 0.672,0.25 0.882,0 1.328,-0.203 1.328,-0.61 0,-0.043 -0.039,-0.265 -0.11,-0.671 l -1.718,-6.922 c -0.375,-1.45 -0.719,-2.34 -1.032,-2.672 -0.136,-0.188 -0.328,-0.297 -0.578,-0.328 -0.25,-0.039 -1.304,-0.071 -3.156,-0.094 l -5.891,0.141 -8.328,0.109 -6.562,0.141 c -5.418,-0.145 -8.793,-0.239 -10.125,-0.282 -0.981,-0.07 -1.75,-0.109 -2.313,-0.109 -0.687,0 -1.031,0.309 -1.031,0.922 l 0,0.469 c 0.019,0.445 0.125,0.734 0.312,0.859 0.219,0.094 0.821,0.148 1.813,0.172 2.281,0 3.781,0.547 4.5,1.64 0.426,0.645 0.648,2.641 0.672,5.985 z m 52.926,22.39 0.468,-0.187 c -0.023,-1.188 -0.046,-3.039 -0.078,-5.547 l -0.062,-5.562 0,-11.094 c 0.039,-3.449 0.097,-5.446 0.172,-5.985 0.164,-1.148 1.453,-1.851 3.859,-2.109 0.781,-0.043 1.16,-0.266 1.141,-0.672 l 0,-0.5 c 0,-0.594 -0.266,-0.89 -0.797,-0.89 -0.211,0 -1.074,0.085 -2.594,0.25 -1.543,0.168 -3.148,0.25 -4.813,0.25 -1.523,0 -3.562,-0.141 -6.124,-0.422 -0.336,-0.051 -0.668,-0.078 -1,-0.078 -0.594,0 -0.891,0.296 -0.891,0.89 l 0,0.5 c -0.031,0.406 0.348,0.629 1.141,0.672 2.3,0.164 3.656,0.703 4.062,1.609 0.164,0.332 0.258,0.938 0.281,1.813 l 0.063,4.672 0,9.812 c -0.024,2.321 -0.117,3.707 -0.282,4.157 -0.167,0.882 -1.355,1.875 -3.562,2.968 l -0.109,1 4.812,2.282 c 1.926,0.925 3.363,1.648 4.313,2.171 z m -2.641,21.485 c 1.145,0 2.125,-0.403 2.937,-1.203 0.801,-0.782 1.204,-1.746 1.204,-2.891 0,-1.137 -0.403,-2.102 -1.204,-2.891 -0.812,-0.804 -1.792,-1.203 -2.937,-1.203 -1.137,0 -2.094,0.399 -2.875,1.203 -0.793,0.832 -1.188,1.805 -1.188,2.922 0,1.071 0.395,2.024 1.188,2.86 0.781,0.8 1.738,1.203 2.875,1.203 z m 43.141,-44.578 1.093,-1.5 c -1.875,-2.524 -3.453,-4.356 -4.734,-5.5 -2.637,-2.282 -5.633,-3.422 -8.984,-3.422 -3.875,0 -7.121,1.5 -9.735,4.5 -2.586,2.945 -3.875,6.582 -3.875,10.906 0,5.039 1.696,9.344 5.094,12.906 3.281,3.395 7.141,5.094 11.578,5.094 2.313,0 4.426,-0.539 6.344,-1.609 2.094,-1.157 3.141,-2.606 3.141,-4.344 0,-0.762 -0.262,-1.414 -0.782,-1.953 -0.594,-0.625 -1.308,-0.938 -2.14,-0.938 -0.875,0 -1.696,0.426 -2.454,1.282 -0.199,0.195 -0.734,0.898 -1.609,2.109 -0.93,1.258 -1.726,2.078 -2.391,2.453 -0.687,0.406 -1.484,0.609 -2.39,0.609 -2.418,0 -4.543,-1.246 -6.375,-3.734 -1.762,-2.406 -2.641,-5.152 -2.641,-8.234 0,-3.407 0.867,-6.559 2.61,-9.453 0.945,-1.543 2.156,-2.758 3.625,-3.641 1.476,-0.856 3.082,-1.281 4.812,-1.281 2.57,0 4.985,1.035 7.235,3.109 0.57,0.52 1.429,1.398 2.578,2.641 z m 35.613,9.968 -20.641,0 c -0.168,-1.187 -0.25,-2.125 -0.25,-2.812 0,-3.063 0.942,-5.828 2.828,-8.297 1.02,-1.336 2.254,-2.418 3.704,-3.25 1.593,-0.875 3.207,-1.312 4.843,-1.312 2.52,0 5.301,1.41 8.344,4.234 l 1.281,-0.969 c -3.586,-5.324 -7.851,-7.984 -12.797,-7.984 -3.711,0 -6.871,1.418 -9.484,4.25 -2.73,2.988 -4.094,6.695 -4.094,11.125 0,4.414 1.352,8.453 4.063,12.109 2.945,3.945 6.617,5.922 11.015,5.922 2.852,0 5.321,-0.871 7.407,-2.609 2.519,-2.043 3.781,-5.141 3.781,-9.297 l 0,-1.11 z m -20.281,1.641 9.515,0.25 c 1.739,0.031 2.785,0.113 3.141,0.25 1.113,0.406 1.672,1.258 1.672,2.563 0,1.687 -0.606,3.113 -1.813,4.281 -1.148,1.113 -2.574,1.672 -4.281,1.672 -2.711,0 -4.898,-1.485 -6.562,-4.453 -0.711,-1.231 -1.266,-2.75 -1.672,-4.563 z m 40.004,3.172 0,-14.078 c 0,-3.418 0.05,-5.414 0.156,-5.985 0.187,-1.148 1.457,-1.851 3.812,-2.109 0.758,-0.043 1.149,-0.266 1.172,-0.672 l 0,-0.5 c 0,-0.594 -0.297,-0.89 -0.89,-0.89 -0.336,0 -1.336,0.085 -3,0.25 -1.711,0.168 -3.055,0.25 -4.032,0.25 -0.898,0 -2.929,-0.141 -6.093,-0.422 -0.43,-0.051 -0.774,-0.078 -1.032,-0.078 -0.543,0 -0.812,0.296 -0.812,0.89 l 0,0.5 c 0,0.406 0.379,0.629 1.14,0.672 2.039,0.164 3.239,0.645 3.594,1.438 0.188,0.332 0.305,0.89 0.36,1.671 0.019,0.282 0.046,1.942 0.078,4.985 l 0,10.015 c -0.032,2.332 -0.117,3.723 -0.25,4.172 -0.219,0.852 -1.422,1.844 -3.61,2.969 l -0.062,0.984 4.812,2.282 c 1.582,0.757 3.02,1.472 4.313,2.14 l 0.344,-0.172 0,-5.953 c 1.882,1.446 3.394,2.539 4.531,3.282 2.664,1.707 5.195,2.562 7.594,2.562 2.781,0 4.976,-0.891 6.593,-2.672 0.852,-0.949 1.426,-2.101 1.719,-3.453 0.258,-1.125 0.391,-2.859 0.391,-5.203 l 0,-10.953 c 0,-3.18 0.008,-4.961 0.031,-5.344 0.094,-1.074 0.555,-1.789 1.391,-2.141 0.664,-0.304 1.519,-0.507 2.562,-0.609 0.758,-0.062 1.141,-0.289 1.141,-0.672 l 0,-0.5 c 0,-0.594 -0.297,-0.89 -0.891,-0.89 -0.312,0 -1.297,0.085 -2.953,0.25 -1.711,0.168 -3.063,0.25 -4.063,0.25 -0.906,0 -2.937,-0.141 -6.093,-0.422 -0.407,-0.051 -0.743,-0.078 -1,-0.078 -0.555,0 -0.828,0.296 -0.828,0.89 l 0,0.5 c 0,0.406 0.378,0.629 1.14,0.672 2.02,0.164 3.207,0.645 3.563,1.438 0.195,0.332 0.316,0.89 0.359,1.671 0.031,0.039 0.055,1.704 0.078,4.985 l 0,9.875 c 0,2.258 -0.094,3.734 -0.281,4.422 -0.293,0.976 -0.758,1.765 -1.391,2.359 -1.125,0.969 -2.562,1.453 -4.312,1.453 -2.336,0 -4.641,-0.687 -6.922,-2.062 -0.742,-0.461 -1.527,-1.118 -2.359,-1.969 z m 60.738,-14.781 1.094,-1.5 c -1.875,-2.524 -3.454,-4.356 -4.735,-5.5 -2.637,-2.282 -5.633,-3.422 -8.984,-3.422 -3.875,0 -7.121,1.5 -9.735,4.5 -2.585,2.945 -3.875,6.582 -3.875,10.906 0,5.039 1.696,9.344 5.094,12.906 3.281,3.395 7.141,5.094 11.578,5.094 2.313,0 4.426,-0.539 6.344,-1.609 2.094,-1.157 3.141,-2.606 3.141,-4.344 0,-0.762 -0.262,-1.414 -0.782,-1.953 -0.593,-0.625 -1.308,-0.938 -2.14,-0.938 -0.875,0 -1.695,0.426 -2.453,1.282 -0.199,0.195 -0.735,0.898 -1.61,2.109 -0.929,1.258 -1.726,2.078 -2.39,2.453 -0.688,0.406 -1.485,0.609 -2.391,0.609 -2.418,0 -4.543,-1.246 -6.375,-3.734 -1.762,-2.406 -2.641,-5.152 -2.641,-8.234 0,-3.407 0.868,-6.559 2.61,-9.453 0.945,-1.543 2.156,-2.758 3.625,-3.641 1.476,-0.856 3.082,-1.281 4.812,-1.281 2.571,0 4.985,1.035 7.235,3.109 0.57,0.52 1.429,1.398 2.578,2.641 z m 35.613,9.968 -20.641,0 c -0.167,-1.187 -0.25,-2.125 -0.25,-2.812 0,-3.063 0.942,-5.828 2.829,-8.297 1.019,-1.336 2.254,-2.418 3.703,-3.25 1.594,-0.875 3.207,-1.312 4.844,-1.312 2.519,0 5.3,1.41 8.343,4.234 l 1.281,-0.969 c -3.585,-5.324 -7.851,-7.984 -12.796,-7.984 -3.711,0 -6.871,1.418 -9.485,4.25 -2.73,2.988 -4.093,6.695 -4.093,11.125 0,4.414 1.351,8.453 4.062,12.109 2.945,3.945 6.617,5.922 11.016,5.922 2.851,0 5.32,-0.871 7.406,-2.609 2.519,-2.043 3.781,-5.141 3.781,-9.297 l 0,-1.11 z m -20.281,1.641 9.516,0.25 c 1.738,0.031 2.785,0.113 3.14,0.25 1.113,0.406 1.672,1.258 1.672,2.563 0,1.687 -0.605,3.113 -1.812,4.281 -1.149,1.113 -2.575,1.672 -4.282,1.672 -2.711,0 -4.898,-1.485 -6.562,-4.453 -0.711,-1.231 -1.266,-2.75 -1.672,-4.563 z m 66.637,22.281 0,-33.187 c 0.039,-3.063 0.171,-4.871 0.39,-5.422 0.375,-1.024 1.219,-1.699 2.531,-2.031 0.708,-0.118 1.836,-0.184 3.391,-0.203 0.688,0 1.039,-0.336 1.063,-1 l 0,-0.469 c 0,-0.613 -0.325,-0.922 -0.969,-0.922 -0.5,0 -1.153,0.039 -1.953,0.109 -2.45,0.188 -5.055,0.282 -7.813,0.282 -2.211,0 -4.761,-0.094 -7.656,-0.282 -0.949,-0.07 -1.719,-0.109 -2.313,-0.109 -0.718,0 -1.078,0.309 -1.078,0.922 l 0,0.469 c 0.02,0.425 0.141,0.71 0.36,0.859 0.187,0.094 0.957,0.148 2.312,0.172 2.281,0 3.781,0.547 4.5,1.64 0.395,0.594 0.617,2.586 0.672,5.985 l 0,30.297 c 0,3.07 -0.109,5.007 -0.328,5.812 -0.375,1.539 -1.73,2.313 -4.063,2.313 -0.781,0 -1.574,-0.094 -2.375,-0.282 -0.273,-0.043 -0.492,-0.062 -0.656,-0.062 -0.262,0 -0.437,0.101 -0.531,0.312 -0.043,0.094 -0.078,0.508 -0.109,1.25 0,0.446 0.461,0.77 1.39,0.969 4.758,0.945 10.477,1.422 17.156,1.422 4.27,0 8,-0.836 11.188,-2.5 2.469,-1.262 4.5,-2.914 6.094,-4.953 2.019,-2.524 3.031,-5.195 3.031,-8.016 0,-2.742 -0.93,-5.367 -2.781,-7.875 -2.992,-4.062 -7.543,-6.093 -13.657,-6.093 -1.875,0 -3,0.093 -3.375,0.281 -0.367,0.164 -0.546,0.547 -0.546,1.14 0,0.707 0.226,1.063 0.687,1.063 0.133,0 0.367,-0.024 0.703,-0.063 0.364,-0.074 0.77,-0.109 1.219,-0.109 3.082,0 5.457,0.992 7.125,2.984 1.926,2.313 2.891,5.211 2.891,8.704 0,4.226 -1.368,7.492 -4.094,9.796 -1.149,0.977 -2.586,1.739 -4.313,2.282 -1.218,0.382 -2.304,0.578 -3.25,0.578 -1.949,0 -3.246,-0.297 -3.89,-0.891 -0.45,-0.43 -0.731,-1.14 -0.844,-2.14 -0.074,-0.688 -0.109,-1.7 -0.109,-3.032 z m 45.359,-21.922 0,-11.265 c 0.031,-3.18 0.055,-4.961 0.078,-5.344 0.07,-1.043 0.524,-1.766 1.359,-2.172 0.52,-0.262 1.661,-0.453 3.422,-0.578 0.782,-0.043 1.161,-0.266 1.141,-0.672 l 0,-0.5 c 0,-0.406 -0.078,-0.656 -0.234,-0.75 -0.157,-0.094 -0.543,-0.14 -1.157,-0.14 -0.718,0 -1.824,0.074 -3.312,0.218 -1.856,0.188 -3.211,0.282 -4.063,0.282 -0.812,0 -2.172,-0.094 -4.078,-0.282 -1.449,-0.144 -2.48,-0.218 -3.094,-0.218 -0.617,0 -0.921,0.296 -0.921,0.89 l 0,0.5 c -0.032,0.406 0.347,0.629 1.14,0.672 2.156,0.195 3.426,0.734 3.813,1.609 0.187,0.332 0.289,0.926 0.312,1.782 l 0.047,4.703 0,9.812 c 0,2.321 -0.086,3.707 -0.25,4.157 -0.148,0.882 -1.34,1.875 -3.578,2.968 l -0.094,1 4.813,2.282 c 1.781,0.851 3.218,1.578 4.312,2.171 l 0.5,-0.187 c -0.054,-1.156 -0.078,-2.594 -0.078,-4.313 l -0.078,-3.234 0,-0.859 1.187,1.562 c 1.801,2.445 3.321,4.133 4.563,5.063 1.594,1.238 3.18,1.859 4.766,1.859 1.125,0 2.031,-0.336 2.718,-1 0.739,-0.687 1.11,-1.57 1.11,-2.641 0,-0.855 -0.25,-1.57 -0.75,-2.14 -0.574,-0.637 -1.336,-0.953 -2.282,-0.953 -0.574,0 -1.371,0.234 -2.39,0.703 -0.887,0.437 -1.602,0.656 -2.141,0.656 -1.094,0 -2.281,-0.621 -3.562,-1.859 -0.356,-0.356 -1.199,-1.34 -2.532,-2.953 l -0.687,-0.829 z M 382,184.396 c 4.488,0 8.375,-1.652 11.656,-4.953 3.114,-3.156 4.672,-6.969 4.672,-11.438 0,-4.929 -1.844,-9.054 -5.531,-12.375 -3.418,-3.093 -7.469,-4.64 -12.156,-4.64 -4.512,0 -8.262,1.519 -11.25,4.562 -3.188,3.207 -4.782,7.164 -4.782,11.875 0,3.352 0.985,6.477 2.953,9.375 1.708,2.539 4.051,4.504 7.032,5.891 2.394,1.133 4.863,1.703 7.406,1.703 z m -1.281,-2.391 c -3.375,0 -5.813,-1.234 -7.313,-3.703 -1.594,-2.617 -2.39,-5.797 -2.39,-9.547 0,-4.543 1.175,-8.398 3.531,-11.562 1.883,-2.543 4.406,-3.813 7.562,-3.813 2.821,0 5.079,1.024 6.766,3.079 2.02,2.394 3.031,5.707 3.031,9.937 0,4.938 -1.164,8.914 -3.484,11.938 -1.906,2.445 -4.477,3.671 -7.703,3.671 z m 38.297,-1.812 0,-18.078 c 0.031,-3.211 0.054,-4.992 0.078,-5.344 0.07,-1.023 0.523,-1.746 1.359,-2.172 0.539,-0.281 1.75,-0.476 3.625,-0.578 0.758,-0.043 1.141,-0.266 1.141,-0.672 l 0,-0.5 c 0,-0.281 -0.047,-0.492 -0.141,-0.64 -0.117,-0.165 -0.48,-0.25 -1.094,-0.25 -1.054,0 -2.359,0.085 -3.922,0.25 -1.574,0.168 -2.824,0.25 -3.75,0.25 -0.761,0 -2.042,-0.082 -3.843,-0.25 -1.856,-0.165 -3.125,-0.25 -3.813,-0.25 -0.554,0 -0.875,0.074 -0.968,0.218 -0.118,0.117 -0.172,0.336 -0.172,0.672 l 0,0.5 c -0.055,0.406 0.328,0.629 1.14,0.672 1.727,0.102 2.867,0.297 3.422,0.578 0.82,0.426 1.27,1.149 1.344,2.172 0.031,0.383 0.055,2.164 0.078,5.344 l 0,18.078 -4.531,0 c -0.711,0 -1.137,0.055 -1.281,0.172 -0.118,0.125 -0.172,0.363 -0.172,0.719 l 0,1.531 c 0,0.332 0.046,0.554 0.14,0.672 0.164,0.144 0.602,0.218 1.313,0.218 l 4.531,0 0,4.891 c 0,6.125 1.363,11.145 4.094,15.063 2.406,3.445 5.398,5.171 8.984,5.171 1.258,0 2.297,-0.273 3.11,-0.812 0.851,-0.555 1.281,-1.293 1.281,-2.219 0,-0.762 -0.203,-1.414 -0.61,-1.953 -0.5,-0.687 -1.121,-1.031 -1.859,-1.031 -0.449,0 -1.305,0.379 -2.562,1.14 -1.45,0.852 -2.532,1.282 -3.25,1.282 -1.469,0 -2.5,-0.93 -3.094,-2.782 -0.242,-0.761 -0.406,-1.546 -0.5,-2.359 -0.055,-0.523 -0.078,-1.98 -0.078,-4.375 l 0,-12.016 6.843,0 c 0.977,0 1.539,-0.058 1.688,-0.171 0.113,-0.125 0.172,-0.368 0.172,-0.719 l 0,-1.531 c 0,-0.407 -0.059,-0.657 -0.172,-0.75 -0.125,-0.094 -0.688,-0.141 -1.688,-0.141 l -6.843,0 z m 41.031,-8.813 -20.641,0 c -0.168,-1.187 -0.25,-2.125 -0.25,-2.812 0,-3.063 0.942,-5.828 2.828,-8.297 1.02,-1.336 2.254,-2.418 3.704,-3.25 1.593,-0.875 3.207,-1.312 4.843,-1.312 2.52,0 5.301,1.41 8.344,4.234 l 1.281,-0.969 c -3.586,-5.324 -7.851,-7.984 -12.797,-7.984 -3.711,0 -6.871,1.418 -9.484,4.25 -2.73,2.988 -4.094,6.695 -4.094,11.125 0,4.414 1.352,8.453 4.063,12.109 2.945,3.945 6.617,5.922 11.015,5.922 2.852,0 5.321,-0.871 7.407,-2.609 2.519,-2.043 3.781,-5.141 3.781,-9.297 l 0,-1.11 z m -20.281,1.641 9.515,0.25 c 1.739,0.031 2.785,0.113 3.141,0.25 1.113,0.406 1.672,1.258 1.672,2.563 0,1.687 -0.606,3.113 -1.813,4.281 -1.148,1.113 -2.574,1.672 -4.281,1.672 -2.711,0 -4.898,-1.485 -6.562,-4.453 -0.711,-1.231 -1.266,-2.75 -1.672,-4.563 z m 50.066,9.063 -0.391,-6.672 -1.828,0 c -0.562,2.019 -1.215,3.492 -1.953,4.422 -1.187,1.468 -2.758,2.203 -4.703,2.203 -1.406,0 -2.656,-0.368 -3.75,-1.094 -1.336,-0.93 -2,-2.133 -2,-3.609 0,-1.356 0.711,-2.59 2.141,-3.704 0.593,-0.48 2.113,-1.398 4.562,-2.75 3.094,-1.687 5.223,-3.156 6.391,-4.406 1.445,-1.555 2.172,-3.371 2.172,-5.453 0,-2.949 -1.274,-5.434 -3.813,-7.453 -2.168,-1.719 -4.844,-2.578 -8.031,-2.578 -3.106,0 -6.109,0.883 -9.016,2.64 l -0.422,7.172 2.032,0.141 c 0.539,-1.906 1.265,-3.43 2.172,-4.563 1.664,-2.043 3.613,-3.062 5.843,-3.062 1.782,0 3.219,0.582 4.313,1.75 1.019,1.062 1.531,2.344 1.531,3.844 0,1.5 -0.762,2.937 -2.281,4.312 -0.762,0.688 -2.266,1.633 -4.516,2.844 -2.781,1.476 -4.711,2.801 -5.781,3.969 -1.43,1.539 -2.141,3.359 -2.141,5.453 0,2.656 1.055,4.804 3.172,6.453 2.113,1.633 4.719,2.453 7.813,2.453 2.656,0 5.484,-0.773 8.484,-2.312 z m 30.27,0 -0.391,-6.672 -1.828,0 c -0.563,2.019 -1.215,3.492 -1.953,4.422 -1.188,1.468 -2.758,2.203 -4.703,2.203 -1.407,0 -2.657,-0.368 -3.75,-1.094 -1.336,-0.93 -2,-2.133 -2,-3.609 0,-1.356 0.711,-2.59 2.14,-3.704 0.594,-0.48 2.113,-1.398 4.563,-2.75 3.093,-1.687 5.222,-3.156 6.39,-4.406 1.446,-1.555 2.172,-3.371 2.172,-5.453 0,-2.949 -1.273,-5.434 -3.812,-7.453 -2.168,-1.719 -4.844,-2.578 -8.032,-2.578 -3.105,0 -6.109,0.883 -9.015,2.64 l -0.422,7.172 2.031,0.141 c 0.539,-1.906 1.266,-3.43 2.172,-4.563 1.664,-2.043 3.613,-3.062 5.844,-3.062 1.781,0 3.219,0.582 4.312,1.75 1.02,1.062 1.532,2.344 1.532,3.844 0,1.5 -0.762,2.937 -2.282,4.312 -0.761,0.688 -2.265,1.633 -4.515,2.844 -2.782,1.476 -4.711,2.801 -5.782,3.969 -1.429,1.539 -2.14,3.359 -2.14,5.453 0,2.656 1.055,4.804 3.172,6.453 2.113,1.633 4.718,2.453 7.812,2.453 2.656,0 5.485,-0.773 8.485,-2.312 z m 20.312,2.421 0.469,-0.187 c -0.024,-1.188 -0.047,-3.039 -0.078,-5.547 l -0.063,-5.562 0,-11.094 c 0.039,-3.449 0.098,-5.446 0.172,-5.985 0.164,-1.148 1.453,-1.851 3.859,-2.109 0.782,-0.043 1.161,-0.266 1.141,-0.672 l 0,-0.5 c 0,-0.594 -0.266,-0.89 -0.797,-0.89 -0.211,0 -1.074,0.085 -2.594,0.25 -1.543,0.168 -3.148,0.25 -4.812,0.25 -1.523,0 -3.563,-0.141 -6.125,-0.422 -0.336,-0.051 -0.668,-0.078 -1,-0.078 -0.594,0 -0.891,0.296 -0.891,0.89 l 0,0.5 c -0.031,0.406 0.348,0.629 1.141,0.672 2.301,0.164 3.656,0.703 4.062,1.609 0.164,0.332 0.258,0.938 0.282,1.813 l 0.062,4.672 0,9.812 c -0.023,2.321 -0.117,3.707 -0.281,4.157 -0.168,0.882 -1.356,1.875 -3.563,2.968 l -0.109,1 4.813,2.282 c 1.925,0.925 3.363,1.648 4.312,2.171 z m -2.641,21.485 c 1.145,0 2.125,-0.403 2.938,-1.203 0.801,-0.782 1.203,-1.746 1.203,-2.891 0,-1.137 -0.402,-2.102 -1.203,-2.891 -0.813,-0.804 -1.793,-1.203 -2.938,-1.203 -1.136,0 -2.093,0.399 -2.875,1.203 -0.793,0.832 -1.187,1.805 -1.187,2.922 0,1.071 0.394,2.024 1.187,2.86 0.782,0.8 1.739,1.203 2.875,1.203 z m 34.688,-21.594 c 4.488,0 8.375,-1.652 11.656,-4.953 3.113,-3.156 4.672,-6.969 4.672,-11.438 0,-4.929 -1.844,-9.054 -5.531,-12.375 -3.418,-3.093 -7.469,-4.64 -12.156,-4.64 -4.512,0 -8.262,1.519 -11.25,4.562 -3.188,3.207 -4.782,7.164 -4.782,11.875 0,3.352 0.985,6.477 2.953,9.375 1.707,2.539 4.051,4.504 7.032,5.891 2.394,1.133 4.863,1.703 7.406,1.703 z m -1.281,-2.391 c -3.375,0 -5.813,-1.234 -7.313,-3.703 -1.594,-2.617 -2.39,-5.797 -2.39,-9.547 0,-4.543 1.175,-8.398 3.531,-11.562 1.883,-2.543 4.406,-3.813 7.562,-3.813 2.821,0 5.078,1.024 6.766,3.079 2.019,2.394 3.031,5.707 3.031,9.937 0,4.938 -1.164,8.914 -3.484,11.938 -1.906,2.445 -4.477,3.671 -7.703,3.671 z m 37.656,-5.812 0,-14.078 c 0,-3.418 0.051,-5.414 0.156,-5.985 0.188,-1.148 1.457,-1.851 3.813,-2.109 0.757,-0.043 1.148,-0.266 1.172,-0.672 l 0,-0.5 c 0,-0.594 -0.297,-0.89 -0.891,-0.89 -0.336,0 -1.336,0.085 -3,0.25 -1.711,0.168 -3.055,0.25 -4.031,0.25 -0.899,0 -2.93,-0.141 -6.094,-0.422 -0.43,-0.051 -0.773,-0.078 -1.031,-0.078 -0.543,0 -0.813,0.296 -0.813,0.89 l 0,0.5 c 0,0.406 0.379,0.629 1.141,0.672 2.039,0.164 3.238,0.645 3.594,1.438 0.187,0.332 0.304,0.89 0.359,1.671 0.019,0.282 0.047,1.942 0.078,4.985 l 0,10.015 c -0.031,2.332 -0.117,3.723 -0.25,4.172 -0.219,0.852 -1.422,1.844 -3.609,2.969 l -0.063,0.984 4.813,2.282 c 1.582,0.757 3.019,1.472 4.312,2.14 l 0.344,-0.172 0,-5.953 c 1.883,1.446 3.394,2.539 4.531,3.282 2.664,1.707 5.195,2.562 7.594,2.562 2.781,0 4.977,-0.891 6.594,-2.672 0.851,-0.949 1.425,-2.101 1.718,-3.453 0.258,-1.125 0.391,-2.859 0.391,-5.203 l 0,-10.953 c 0,-3.18 0.008,-4.961 0.031,-5.344 0.094,-1.074 0.555,-1.789 1.391,-2.141 0.664,-0.304 1.519,-0.507 2.562,-0.609 0.758,-0.062 1.141,-0.289 1.141,-0.672 l 0,-0.5 c 0,-0.594 -0.297,-0.89 -0.891,-0.89 -0.312,0 -1.296,0.085 -2.953,0.25 -1.711,0.168 -3.062,0.25 -4.062,0.25 -0.906,0 -2.938,-0.141 -6.094,-0.422 -0.406,-0.051 -0.742,-0.078 -1,-0.078 -0.555,0 -0.828,0.296 -0.828,0.89 l 0,0.5 c 0,0.406 0.379,0.629 1.141,0.672 2.019,0.164 3.207,0.645 3.562,1.438 0.195,0.332 0.316,0.89 0.359,1.671 0.032,0.039 0.055,1.704 0.079,4.985 l 0,9.875 c 0,2.258 -0.094,3.734 -0.282,4.422 -0.293,0.976 -0.758,1.765 -1.39,2.359 -1.125,0.969 -2.563,1.453 -4.313,1.453 -2.336,0 -4.64,-0.687 -6.922,-2.062 -0.742,-0.461 -1.527,-1.118 -2.359,-1.969 z m 44.976,0 0,-14.078 c 0,-3.418 0.051,-5.414 0.157,-5.985 0.187,-1.148 1.457,-1.851 3.812,-2.109 0.758,-0.043 1.149,-0.266 1.172,-0.672 l 0,-0.5 c 0,-0.594 -0.297,-0.89 -0.891,-0.89 -0.335,0 -1.335,0.085 -3,0.25 -1.71,0.168 -3.054,0.25 -4.031,0.25 -0.898,0 -2.929,-0.141 -6.093,-0.422 -0.43,-0.051 -0.774,-0.078 -1.032,-0.078 -0.543,0 -0.812,0.296 -0.812,0.89 l 0,0.5 c 0,0.406 0.379,0.629 1.14,0.672 2.039,0.164 3.239,0.645 3.594,1.438 0.188,0.332 0.305,0.89 0.36,1.671 0.019,0.282 0.046,1.942 0.078,4.985 l 0,10.015 c -0.032,2.332 -0.118,3.723 -0.25,4.172 -0.219,0.852 -1.422,1.844 -3.61,2.969 l -0.062,0.984 4.812,2.282 c 1.582,0.757 3.02,1.472 4.313,2.14 l 0.343,-0.172 0,-5.953 c 1.883,1.446 3.395,2.539 4.532,3.282 2.664,1.707 5.195,2.562 7.594,2.562 2.781,0 4.976,-0.891 6.593,-2.672 0.852,-0.949 1.426,-2.101 1.719,-3.453 0.258,-1.125 0.391,-2.859 0.391,-5.203 l 0,-10.953 c 0,-3.18 0.007,-4.961 0.031,-5.344 0.094,-1.074 0.555,-1.789 1.39,-2.141 0.665,-0.304 1.52,-0.507 2.563,-0.609 0.758,-0.062 1.141,-0.289 1.141,-0.672 l 0,-0.5 c 0,-0.594 -0.297,-0.89 -0.891,-0.89 -0.313,0 -1.297,0.085 -2.953,0.25 -1.711,0.168 -3.063,0.25 -4.063,0.25 -0.906,0 -2.937,-0.141 -6.093,-0.422 -0.407,-0.051 -0.743,-0.078 -1,-0.078 -0.555,0 -0.828,0.296 -0.828,0.89 l 0,0.5 c 0,0.406 0.378,0.629 1.14,0.672 2.02,0.164 3.207,0.645 3.563,1.438 0.195,0.332 0.316,0.89 0.359,1.671 0.031,0.039 0.055,1.704 0.078,4.985 l 0,9.875 c 0,2.258 -0.094,3.734 -0.281,4.422 -0.293,0.976 -0.758,1.765 -1.391,2.359 -1.125,0.969 -2.562,1.453 -4.312,1.453 -2.336,0 -4.641,-0.687 -6.922,-2.062 -0.742,-0.461 -1.527,-1.118 -2.36,-1.969 z m 60.801,-4.813 -20.64,0 c -0.168,-1.187 -0.25,-2.125 -0.25,-2.812 0,-3.063 0.941,-5.828 2.828,-8.297 1.019,-1.336 2.254,-2.418 3.703,-3.25 1.594,-0.875 3.207,-1.312 4.844,-1.312 2.519,0 5.3,1.41 8.343,4.234 l 1.282,-0.969 c -3.586,-5.324 -7.852,-7.984 -12.797,-7.984 -3.711,0 -6.871,1.418 -9.485,4.25 -2.73,2.988 -4.093,6.695 -4.093,11.125 0,4.414 1.351,8.453 4.062,12.109 2.945,3.945 6.617,5.922 11.016,5.922 2.851,0 5.32,-0.871 7.406,-2.609 2.52,-2.043 3.781,-5.141 3.781,-9.297 l 0,-1.11 z m -20.281,1.641 9.516,0.25 c 1.738,0.031 2.785,0.113 3.14,0.25 1.114,0.406 1.672,1.258 1.672,2.563 0,1.687 -0.605,3.113 -1.812,4.281 -1.149,1.113 -2.575,1.672 -4.282,1.672 -2.711,0 -4.898,-1.485 -6.562,-4.453 -0.711,-1.231 -1.266,-2.75 -1.672,-4.563 z m 39.973,35.578 0.468,-0.219 c -0.023,-1.281 -0.046,-3.359 -0.078,-6.234 l -0.031,-4.922 0,-35.109 c 0.02,-3.418 0.066,-5.414 0.141,-5.985 0.187,-1.168 1.468,-1.871 3.843,-2.109 0.79,-0.043 1.188,-0.266 1.188,-0.672 l 0,-0.5 c 0,-0.594 -0.297,-0.89 -0.891,-0.89 -0.336,0 -1.336,0.085 -3,0.25 -1.711,0.168 -3.062,0.25 -4.062,0.25 -1.043,0 -2.399,-0.082 -4.063,-0.25 -1.636,-0.165 -2.75,-0.25 -3.343,-0.25 -0.649,0 -0.969,0.296 -0.969,0.89 l 0,0.5 c 0,0.188 0.047,0.328 0.14,0.422 0.145,0.145 0.618,0.227 1.422,0.25 1.332,0.051 2.391,0.363 3.172,0.938 0.363,0.257 0.594,0.648 0.688,1.171 0.093,0.571 0.148,2.567 0.172,5.985 l 0,33.906 c -0.024,2.32 -0.106,3.711 -0.25,4.172 -0.168,0.82 -1.368,1.805 -3.594,2.953 l -0.078,1 4.812,2.281 c 1.781,0.852 3.219,1.578 4.313,2.172 z m 24.843,0 0.469,-0.219 c -0.023,-1.281 -0.047,-3.359 -0.078,-6.234 l -0.031,-4.922 0,-35.109 c 0.019,-3.418 0.066,-5.414 0.14,-5.985 0.188,-1.168 1.469,-1.871 3.844,-2.109 0.789,-0.043 1.188,-0.266 1.188,-0.672 l 0,-0.5 c 0,-0.594 -0.297,-0.89 -0.891,-0.89 -0.336,0 -1.336,0.085 -3,0.25 -1.711,0.168 -3.062,0.25 -4.062,0.25 -1.043,0 -2.399,-0.082 -4.063,-0.25 -1.637,-0.165 -2.75,-0.25 -3.344,-0.25 -0.648,0 -0.968,0.296 -0.968,0.89 l 0,0.5 c 0,0.188 0.046,0.328 0.14,0.422 0.145,0.145 0.617,0.227 1.422,0.25 1.332,0.051 2.391,0.363 3.172,0.938 0.363,0.257 0.594,0.648 0.687,1.171 0.094,0.571 0.149,2.567 0.172,5.985 l 0,33.906 c -0.023,2.32 -0.105,3.711 -0.25,4.172 -0.168,0.82 -1.367,1.805 -3.593,2.953 l -0.079,1 4.813,2.281 c 1.781,0.852 3.219,1.578 4.312,2.172 z m 40.7,-37.219 -20.641,0 c -0.168,-1.187 -0.25,-2.125 -0.25,-2.812 0,-3.063 0.941,-5.828 2.828,-8.297 1.02,-1.336 2.254,-2.418 3.703,-3.25 1.594,-0.875 3.207,-1.312 4.844,-1.312 2.52,0 5.301,1.41 8.344,4.234 l 1.281,-0.969 c -3.586,-5.324 -7.852,-7.984 -12.797,-7.984 -3.711,0 -6.871,1.418 -9.484,4.25 -2.731,2.988 -4.094,6.695 -4.094,11.125 0,4.414 1.352,8.453 4.063,12.109 2.945,3.945 6.617,5.922 11.015,5.922 2.852,0 5.32,-0.871 7.406,-2.609 2.52,-2.043 3.782,-5.141 3.782,-9.297 l 0,-1.11 z m -20.282,1.641 9.516,0.25 c 1.738,0.031 2.785,0.113 3.141,0.25 1.113,0.406 1.672,1.258 1.672,2.563 0,1.687 -0.606,3.113 -1.813,4.281 -1.148,1.113 -2.574,1.672 -4.281,1.672 -2.711,0 -4.899,-1.485 -6.563,-4.453 -0.711,-1.231 -1.265,-2.75 -1.672,-4.563 z"
         id="path16"
         style="fill:#000000;fill-opacity:1;fill-rule:nonzero;stroke:none" /></g></g></svg>